<mxfile modified="2022-05-02T22:23:41.811Z" host="app.diagrams.net" agent="5.0 (Windows NT 10.0; Win64; x64) AppleWebKit/537.36 (KHTML, like Gecko) Chrome/100.0.4896.127 Safari/537.36 Edg/100.0.1185.50" etag="VfJlSNyYHpY7sy7V6gFg" compressed="false" version="17.5.0" type="google">
  <diagram name="Security/Permissions/Categories" id="PAYPJyqqfASxufRK5rih">
    <mxGraphModel grid="1" page="1" gridSize="10" guides="1" tooltips="1" connect="1" arrows="1" fold="1" pageScale="1" pageWidth="827" pageHeight="1169" math="0" shadow="0">
      <root>
        <mxCell id="nMg6nn1vpPkdAZsZBbQr-0" />
        <mxCell id="nMg6nn1vpPkdAZsZBbQr-1" parent="nMg6nn1vpPkdAZsZBbQr-0" />
        <mxCell id="nMg6nn1vpPkdAZsZBbQr-2" value="&lt;font style=&quot;font-size: 12px&quot;&gt;&lt;span style=&quot;font-size: 12px&quot;&gt;Diagram: Base System Logical Module -&amp;nbsp;&lt;/span&gt;Security - Permissions Groups&lt;/font&gt;" style="text;strokeColor=none;fillColor=none;html=1;fontSize=24;fontStyle=2;verticalAlign=middle;align=left;shadow=0;glass=0;comic=0;opacity=30;fontColor=#808080;" vertex="1" parent="nMg6nn1vpPkdAZsZBbQr-1">
          <mxGeometry x="120" y="460" width="520" height="20" as="geometry" />
        </mxCell>
        <mxCell id="nMg6nn1vpPkdAZsZBbQr-4" value="User&amp;nbsp;" style="shape=image;html=1;verticalAlign=top;verticalLabelPosition=bottom;labelBackgroundColor=#ffffff;imageAspect=0;aspect=fixed;image=https://cdn0.iconfinder.com/data/icons/elasto-online-store/26/00-ELASTOFONT-STORE-READY_user-128.png" vertex="1" parent="nMg6nn1vpPkdAZsZBbQr-1">
          <mxGeometry x="330" y="340" width="40" height="40" as="geometry" />
        </mxCell>
        <mxCell id="nMg6nn1vpPkdAZsZBbQr-36" style="edgeStyle=none;rounded=0;orthogonalLoop=1;jettySize=auto;html=1;entryX=0.532;entryY=0.738;entryDx=0;entryDy=0;entryPerimeter=0;dashed=1;startArrow=none;startFill=0;endArrow=none;endFill=0;" edge="1" parent="nMg6nn1vpPkdAZsZBbQr-1">
          <mxGeometry relative="1" as="geometry">
            <mxPoint x="256.5924369747902" y="300" as="sourcePoint" />
            <mxPoint x="255.81040000000007" y="292.14" as="targetPoint" />
          </mxGeometry>
        </mxCell>
        <mxCell id="nMg6nn1vpPkdAZsZBbQr-37" value="&lt;font style=&quot;font-size: 12px&quot; color=&quot;#000000&quot;&gt;Groups&lt;/font&gt;" style="rounded=0;whiteSpace=wrap;html=1;fontSize=17;fontColor=#CC0000;align=center;" vertex="1" parent="nMg6nn1vpPkdAZsZBbQr-1">
          <mxGeometry x="210" y="280" width="80" height="20" as="geometry" />
        </mxCell>
        <mxCell id="nMg6nn1vpPkdAZsZBbQr-38" value="&lt;font style=&quot;font-size: 12px&quot; color=&quot;#000000&quot;&gt;Resources&lt;/font&gt;" style="rounded=0;whiteSpace=wrap;html=1;fontSize=17;fontColor=#CC0000;align=center;" vertex="1" parent="nMg6nn1vpPkdAZsZBbQr-1">
          <mxGeometry x="300" y="280" width="80" height="20" as="geometry" />
        </mxCell>
        <mxCell id="nMg6nn1vpPkdAZsZBbQr-39" value="&lt;font style=&quot;font-size: 12px&quot; color=&quot;#000000&quot;&gt;Systems&lt;/font&gt;" style="rounded=0;whiteSpace=wrap;html=1;fontSize=17;fontColor=#CC0000;align=center;" vertex="1" parent="nMg6nn1vpPkdAZsZBbQr-1">
          <mxGeometry x="120" y="280" width="80" height="20" as="geometry" />
        </mxCell>
        <mxCell id="nMg6nn1vpPkdAZsZBbQr-45" value="&lt;font style=&quot;font-size: 12px&quot; color=&quot;#000000&quot;&gt;DataCategory&lt;/font&gt;" style="rounded=0;whiteSpace=wrap;html=1;fontSize=17;fontColor=#CC0000;align=center;" vertex="1" parent="nMg6nn1vpPkdAZsZBbQr-1">
          <mxGeometry x="390" y="280" width="80" height="20" as="geometry" />
        </mxCell>
      </root>
    </mxGraphModel>
  </diagram>
</mxfile>
